<svg xmlns="http://www.w3.org/2000/svg" width="12" height="14" viewBox="0 0 12 14">
  <path d="M6.98996167,13.5920878 C6.73590071,13.8640293 6.38985216,14 6.00876072,14 C5.62766928,14 5.2860011,13.8640293 5.02755977,13.5920878 L0.410658879,9.04613293 C-0.136886293,8.50678235 -0.136886293,7.62750494 0.410658879,7.08815436 C0.958204052,6.54880378 1.84303705,6.54880378 2.39058222,7.08815436 L4.59828436,9.27275082 L4.59828436,1.38690149 C4.59828436,0.620933018 5.22467604,0 6,0 C6.77532396,0 7.40171564,0.620933018 7.40171564,1.38690149 L7.40171564,9.27275082 L9.60941778,7.08815436 C10.1569629,6.54880378 11.0417959,6.54880378 11.5893411,7.08815436 C12.1368863,7.62750494 12.1368863,8.50224999 11.5893411,9.04613293 L6.98996167,13.5920878 Z"/>
</svg>
