<svg xmlns="http://www.w3.org/2000/svg" width="25" height="17" viewBox="0 0 25 17">
  <path fill="#9A8C8C" d="M25,0 C23.5350551,1.63942119 22.3583138,3.18972016 21.4697406,4.6509434 C20.5811675,6.11216664 19.9927968,7.48427031 19.704611,8.7672956 L19.9207493,8.7672956 C20.9534153,8.7672956 21.7519184,9.03458852 22.3162824,9.56918239 C22.8806464,10.1037763 23.1628242,10.8581363 23.1628242,11.8322851 C23.1628242,13.4479466 22.7125405,14.7131331 21.8119597,15.6278826 C20.9113788,16.5426321 19.6685958,17 18.0835735,17 C16.7146906,17 15.68204,16.6198501 14.9855908,15.8595388 C14.2891416,15.0992275 13.9409222,13.946898 13.9409222,12.4025157 C13.9409222,9.2662317 15.021603,6.46856575 17.1829971,4.00943396 C19.3443912,1.55030217 21.9500328,0.213837547 25,0 Z M11.0590778,0 C9.59413293,1.63942119 8.42939914,3.17784047 7.5648415,4.61530398 C6.70028386,6.05276749 6.12392075,7.43675086 5.83573487,8.7672956 L6.0518732,8.7672956 C7.08453927,8.7672956 7.87103476,9.02864868 8.41138329,9.55136268 C8.95173181,10.0740767 9.22190202,10.8343766 9.22190202,11.8322851 C9.22190202,13.4479466 8.77762212,14.7131331 7.88904899,15.6278826 C7.00047586,16.5426321 5.77570425,17 4.21469741,17 C2.82179899,17 1.77113707,16.6139102 1.06268012,15.8417191 C0.354223163,15.0695279 0,13.9231383 0,12.4025157 C0,9.2662317 1.07467705,6.46856575 3.2240634,4.00943396 C5.37344975,1.55030217 7.9850951,0.213837547 11.0590778,0 Z"/>
</svg>
